<svg width="59" height="59" viewBox="0 0 59 59" fill="none" xmlns="http://www.w3.org/2000/svg">
<path d="M16 15.8231V19.6802H17.9286V17.7516H19.8571V15.8231H16ZM23.7143 15.8231V17.7516H27.5714V15.8231H23.7143ZM31.4286 15.8231V17.7516H35.2857V15.8231H31.4286ZM39.1429 15.8231V17.7516H41.0714V19.6802H43V15.8231H39.1429ZM16 23.5373V27.3945H17.9286V23.5373H16ZM41.0714 23.5373V27.3945H43V23.5373H41.0714ZM16 31.2516V35.1088H17.9286V31.2516H16ZM41.0714 31.2516V35.1088H43V31.2516H41.0714ZM16 38.9659V42.8231H19.8571V40.8945H17.9286V38.9659H16ZM41.0714 38.9659V40.8945H39.1429V42.8231H43V38.9659H41.0714ZM23.7143 40.8945V42.8231H27.5714V40.8945H23.7143ZM31.4286 40.8945V42.8231H35.2857V40.8945H31.4286Z" fill="white"/>
</svg>
