<svg width="59" height="59" viewBox="0 0 59 59" fill="none" xmlns="http://www.w3.org/2000/svg">
<path d="M15 23.1261V27.2655H17.0714V25.1958H19.1428V23.1261H15ZM15 31.4049V35.5443H17.0714V31.4049H15ZM15 39.6837V43.8231H19.1428V41.7534H17.0714V39.6837H15ZM33.6426 39.6837V41.7534H31.5712V43.8231H35.714V39.6837H33.6426ZM23.2856 41.7534V43.8231H27.4284V41.7534H23.2856Z" fill="white"/>
<path d="M24.3051 14.8231C23.7316 14.8231 23.2673 15.2889 23.2694 15.8619L23.286 24.1529C23.2861 24.7244 23.7497 25.1876 24.3217 25.1877H33.643V34.5054C33.6431 35.0769 34.1067 35.5402 34.6787 35.5402H42.9643C43.5363 35.5402 43.9999 35.0769 44 34.5054V15.8781C43.9999 15.3066 43.5363 14.8433 42.9643 14.8433L24.3051 14.8231Z" fill="white"/>
</svg>
